<mxfile host="app.diagrams.net" modified="2023-12-11T09:44:03.083Z" agent="Mozilla/5.0 (Windows NT 10.0; Win64; x64) AppleWebKit/537.36 (KHTML, like Gecko) Chrome/119.0.0.0 Safari/537.36" etag="ONZamRhshVO49pniV824" version="22.1.7" type="device">
  <diagram name="Page-1" id="FQ7vzqULt2XKo3BVyRkS">
    <mxGraphModel dx="1818" dy="390" grid="1" gridSize="10" guides="1" tooltips="1" connect="1" arrows="1" fold="1" page="1" pageScale="1" pageWidth="850" pageHeight="1100" math="0" shadow="0">
      <root>
        <mxCell id="0" />
        <mxCell id="1" parent="0" />
        <mxCell id="e-6Uy4bW49nk9TyTIGqh-1" style="edgeStyle=orthogonalEdgeStyle;shape=connector;rounded=0;orthogonalLoop=1;jettySize=auto;html=1;exitX=0.5;exitY=1;exitDx=0;exitDy=0;exitPerimeter=0;labelBackgroundColor=default;strokeColor=GREEN;align=center;verticalAlign=middle;fontFamily=Helvetica;fontSize=11;fontColor=blue;endArrow=open;entryX=0.5;entryY=1;entryDx=0;entryDy=0;entryPerimeter=0;endFill=0;" edge="1" parent="1" target="e-6Uy4bW49nk9TyTIGqh-3">
          <mxGeometry relative="1" as="geometry">
            <mxPoint x="454.5" y="420" as="sourcePoint" />
          </mxGeometry>
        </mxCell>
        <mxCell id="e-6Uy4bW49nk9TyTIGqh-2" value="&lt;font color=&quot;#ff0000&quot;&gt;rf_en&lt;/font&gt;" style="edgeLabel;html=1;align=center;verticalAlign=middle;resizable=0;points=[];fontSize=11;fontFamily=Helvetica;fontColor=default;strokeColor=#330066;" connectable="0" vertex="1" parent="e-6Uy4bW49nk9TyTIGqh-1">
          <mxGeometry x="-0.7395" relative="1" as="geometry">
            <mxPoint y="6" as="offset" />
          </mxGeometry>
        </mxCell>
        <mxCell id="e-6Uy4bW49nk9TyTIGqh-3" value="&lt;b style=&quot;font-size: 8px;&quot;&gt;Register &lt;br&gt;File&lt;/b&gt;" style="rounded=0;whiteSpace=wrap;html=1;points=[[0,0,0,0,0],[0,0.25,0,0,0],[0,0.5,0,0,0],[0,0.75,0,0,0],[0,1,0,0,0],[0.25,0,0,0,0],[0.25,1,0,0,0],[0.5,0,0,0,0],[0.5,1,0,0,0],[0.75,0,0,0,0],[0.75,1,0,0,0],[1,0,0,0,0],[1,0.25,0,0,0],[1,0.5,0,0,0],[1,0.63,0,0,0],[1,0.75,0,0,0],[1,1,0,0,0]];" vertex="1" parent="1">
          <mxGeometry x="405" y="220" width="100" height="170" as="geometry" />
        </mxCell>
        <mxCell id="e-6Uy4bW49nk9TyTIGqh-4" value="&lt;b style=&quot;font-size: 8px;&quot;&gt;Instruction &lt;br&gt;Memory&lt;/b&gt;" style="rounded=0;whiteSpace=wrap;html=1;" vertex="1" parent="1">
          <mxGeometry x="65" y="220" width="110" height="165" as="geometry" />
        </mxCell>
        <mxCell id="e-6Uy4bW49nk9TyTIGqh-5" value="&lt;font style=&quot;font-size: 8px;&quot;&gt;&lt;b&gt;Instruction&lt;br&gt;Decoder&lt;/b&gt;&lt;/font&gt;" style="rounded=0;whiteSpace=wrap;html=1;" vertex="1" parent="1">
          <mxGeometry x="235" y="230" width="120" height="140" as="geometry" />
        </mxCell>
        <mxCell id="e-6Uy4bW49nk9TyTIGqh-6" style="edgeStyle=orthogonalEdgeStyle;rounded=0;orthogonalLoop=1;jettySize=auto;html=1;exitX=1;exitY=0.5;exitDx=0;exitDy=0;entryX=0;entryY=0.5;entryDx=0;entryDy=0;endArrow=open;endFill=0;" edge="1" parent="1" source="e-6Uy4bW49nk9TyTIGqh-18" target="e-6Uy4bW49nk9TyTIGqh-17">
          <mxGeometry relative="1" as="geometry" />
        </mxCell>
        <mxCell id="e-6Uy4bW49nk9TyTIGqh-7" value="&lt;font style=&quot;font-size: 8px;&quot;&gt;rs1&lt;/font&gt;" style="text;html=1;strokeColor=none;fillColor=none;align=center;verticalAlign=middle;whiteSpace=wrap;rounded=0;" vertex="1" parent="1">
          <mxGeometry x="405" y="240" width="20" height="10" as="geometry" />
        </mxCell>
        <mxCell id="e-6Uy4bW49nk9TyTIGqh-8" value="&lt;font style=&quot;font-size: 8px;&quot;&gt;rs2&lt;/font&gt;" style="text;html=1;strokeColor=none;fillColor=none;align=center;verticalAlign=middle;whiteSpace=wrap;rounded=0;" vertex="1" parent="1">
          <mxGeometry x="405" y="265" width="20" as="geometry" />
        </mxCell>
        <mxCell id="e-6Uy4bW49nk9TyTIGqh-9" value="&lt;font style=&quot;font-size: 8px;&quot;&gt;rd&lt;/font&gt;" style="text;html=1;strokeColor=none;fillColor=none;align=center;verticalAlign=middle;whiteSpace=wrap;rounded=0;" vertex="1" parent="1">
          <mxGeometry x="405" y="280" width="20" height="10" as="geometry" />
        </mxCell>
        <mxCell id="e-6Uy4bW49nk9TyTIGqh-10" value="&lt;font style=&quot;font-size: 8px;&quot;&gt;wdata&lt;/font&gt;" style="text;html=1;strokeColor=none;fillColor=none;align=center;verticalAlign=middle;whiteSpace=wrap;rounded=0;" vertex="1" parent="1">
          <mxGeometry x="405" y="341.1" width="30" height="10" as="geometry" />
        </mxCell>
        <mxCell id="e-6Uy4bW49nk9TyTIGqh-11" value="" style="endArrow=open;html=1;rounded=0;entryX=0;entryY=0.5;entryDx=0;entryDy=0;exitX=1;exitY=0.5;exitDx=0;exitDy=0;endFill=0;" edge="1" parent="1" source="e-6Uy4bW49nk9TyTIGqh-14" target="e-6Uy4bW49nk9TyTIGqh-7">
          <mxGeometry width="50" height="50" relative="1" as="geometry">
            <mxPoint x="355" y="250" as="sourcePoint" />
            <mxPoint x="405" y="200" as="targetPoint" />
          </mxGeometry>
        </mxCell>
        <mxCell id="e-6Uy4bW49nk9TyTIGqh-12" value="" style="endArrow=open;html=1;rounded=0;entryX=-0.004;entryY=0;entryDx=0;entryDy=0;entryPerimeter=0;exitX=1;exitY=0.5;exitDx=0;exitDy=0;endFill=0;" edge="1" parent="1" source="e-6Uy4bW49nk9TyTIGqh-16" target="e-6Uy4bW49nk9TyTIGqh-8">
          <mxGeometry width="50" height="50" relative="1" as="geometry">
            <mxPoint x="355" y="265" as="sourcePoint" />
            <mxPoint x="415" y="245" as="targetPoint" />
          </mxGeometry>
        </mxCell>
        <mxCell id="e-6Uy4bW49nk9TyTIGqh-13" value="" style="endArrow=open;html=1;rounded=0;exitX=1;exitY=0.5;exitDx=0;exitDy=0;entryX=0;entryY=0.5;entryDx=0;entryDy=0;endFill=0;" edge="1" parent="1" source="e-6Uy4bW49nk9TyTIGqh-15" target="e-6Uy4bW49nk9TyTIGqh-9">
          <mxGeometry width="50" height="50" relative="1" as="geometry">
            <mxPoint x="375" y="275" as="sourcePoint" />
            <mxPoint x="425" y="225" as="targetPoint" />
          </mxGeometry>
        </mxCell>
        <mxCell id="e-6Uy4bW49nk9TyTIGqh-14" value="&lt;font style=&quot;font-size: 8px;&quot;&gt;rs1&lt;/font&gt;" style="text;html=1;strokeColor=none;fillColor=none;align=center;verticalAlign=middle;whiteSpace=wrap;rounded=0;" vertex="1" parent="1">
          <mxGeometry x="335" y="240" width="20" height="10" as="geometry" />
        </mxCell>
        <mxCell id="e-6Uy4bW49nk9TyTIGqh-15" value="&lt;font style=&quot;font-size: 8px;&quot;&gt;rd&lt;/font&gt;" style="text;html=1;strokeColor=none;fillColor=none;align=center;verticalAlign=middle;whiteSpace=wrap;rounded=0;" vertex="1" parent="1">
          <mxGeometry x="335" y="280" width="20" height="10" as="geometry" />
        </mxCell>
        <mxCell id="e-6Uy4bW49nk9TyTIGqh-16" value="&lt;font style=&quot;font-size: 8px;&quot;&gt;rs2&lt;/font&gt;" style="text;html=1;strokeColor=none;fillColor=none;align=center;verticalAlign=middle;whiteSpace=wrap;rounded=0;" vertex="1" parent="1">
          <mxGeometry x="335" y="260" width="20" height="10" as="geometry" />
        </mxCell>
        <mxCell id="e-6Uy4bW49nk9TyTIGqh-17" value="&lt;font style=&quot;font-size: 8px;&quot;&gt;inst&lt;/font&gt;" style="text;html=1;strokeColor=none;fillColor=none;align=center;verticalAlign=middle;whiteSpace=wrap;rounded=0;" vertex="1" parent="1">
          <mxGeometry x="235" y="290" width="20" height="10" as="geometry" />
        </mxCell>
        <mxCell id="e-6Uy4bW49nk9TyTIGqh-18" value="&lt;font style=&quot;font-size: 8px;&quot;&gt;inst&lt;/font&gt;" style="text;html=1;strokeColor=none;fillColor=none;align=center;verticalAlign=middle;whiteSpace=wrap;rounded=0;" vertex="1" parent="1">
          <mxGeometry x="155" y="290" width="20" height="10" as="geometry" />
        </mxCell>
        <mxCell id="e-6Uy4bW49nk9TyTIGqh-19" style="edgeStyle=orthogonalEdgeStyle;rounded=0;orthogonalLoop=1;jettySize=auto;html=1;entryX=0.5;entryY=0;entryDx=0;entryDy=0;endArrow=open;endFill=0;" edge="1" parent="1" source="e-6Uy4bW49nk9TyTIGqh-20" target="e-6Uy4bW49nk9TyTIGqh-28">
          <mxGeometry relative="1" as="geometry">
            <mxPoint x="375" y="600.919540229885" as="targetPoint" />
            <Array as="points">
              <mxPoint x="260" y="570" />
              <mxPoint x="260" y="570" />
            </Array>
          </mxGeometry>
        </mxCell>
        <mxCell id="e-6Uy4bW49nk9TyTIGqh-20" value="&lt;font style=&quot;font-size: 8px;&quot;&gt;opcode&lt;/font&gt;" style="text;html=1;strokeColor=none;fillColor=none;align=center;verticalAlign=middle;whiteSpace=wrap;rounded=0;" vertex="1" parent="1">
          <mxGeometry x="245" y="350" width="30" height="20" as="geometry" />
        </mxCell>
        <mxCell id="e-6Uy4bW49nk9TyTIGqh-21" style="edgeStyle=orthogonalEdgeStyle;rounded=0;orthogonalLoop=1;jettySize=auto;html=1;exitX=0.5;exitY=1;exitDx=0;exitDy=0;entryX=0.5;entryY=0;entryDx=0;entryDy=0;endArrow=open;endFill=0;" edge="1" parent="1" source="e-6Uy4bW49nk9TyTIGqh-22" target="e-6Uy4bW49nk9TyTIGqh-29">
          <mxGeometry relative="1" as="geometry" />
        </mxCell>
        <mxCell id="e-6Uy4bW49nk9TyTIGqh-22" value="&lt;font style=&quot;font-size: 8px;&quot;&gt;funct3&lt;/font&gt;" style="text;html=1;strokeColor=none;fillColor=none;align=center;verticalAlign=middle;whiteSpace=wrap;rounded=0;" vertex="1" parent="1">
          <mxGeometry x="280" y="350" width="30" height="20" as="geometry" />
        </mxCell>
        <mxCell id="e-6Uy4bW49nk9TyTIGqh-23" style="edgeStyle=orthogonalEdgeStyle;rounded=0;orthogonalLoop=1;jettySize=auto;html=1;exitX=0.5;exitY=1;exitDx=0;exitDy=0;entryX=0.5;entryY=0;entryDx=0;entryDy=0;endArrow=open;endFill=0;" edge="1" parent="1" source="e-6Uy4bW49nk9TyTIGqh-24" target="e-6Uy4bW49nk9TyTIGqh-30">
          <mxGeometry relative="1" as="geometry" />
        </mxCell>
        <mxCell id="e-6Uy4bW49nk9TyTIGqh-24" value="&lt;font style=&quot;font-size: 8px;&quot;&gt;funct7&lt;/font&gt;" style="text;html=1;strokeColor=none;fillColor=none;align=center;verticalAlign=middle;whiteSpace=wrap;rounded=0;" vertex="1" parent="1">
          <mxGeometry x="315" y="350" width="30" height="20" as="geometry" />
        </mxCell>
        <mxCell id="e-6Uy4bW49nk9TyTIGqh-25" style="edgeStyle=orthogonalEdgeStyle;rounded=0;orthogonalLoop=1;jettySize=auto;html=1;entryX=0.57;entryY=0.83;entryDx=0;entryDy=0;entryPerimeter=0;strokeColor=GREEN;endArrow=open;endFill=0;" edge="1" parent="1" target="e-6Uy4bW49nk9TyTIGqh-32">
          <mxGeometry relative="1" as="geometry">
            <mxPoint x="685" y="400" as="targetPoint" />
            <mxPoint x="720" y="370" as="sourcePoint" />
          </mxGeometry>
        </mxCell>
        <mxCell id="e-6Uy4bW49nk9TyTIGqh-26" value="&lt;font color=&quot;#ff0000&quot;&gt;aluop&lt;/font&gt;" style="edgeLabel;html=1;align=center;verticalAlign=middle;resizable=0;points=[];fontSize=11;fontFamily=Helvetica;fontColor=GREEN;" connectable="0" vertex="1" parent="e-6Uy4bW49nk9TyTIGqh-25">
          <mxGeometry x="-0.8885" relative="1" as="geometry">
            <mxPoint x="1" as="offset" />
          </mxGeometry>
        </mxCell>
        <mxCell id="e-6Uy4bW49nk9TyTIGqh-27" value="&lt;font style=&quot;font-size: 8px;&quot;&gt;&lt;b&gt;Controller&lt;/b&gt;&lt;/font&gt;" style="rounded=0;whiteSpace=wrap;html=1;points=[[0,0,0,0,0],[0,0.25,0,0,0],[0,0.5,0,0,0],[0,0.75,0,0,0],[0,1,0,0,0],[0.25,0,0,0,0],[0.25,1,0,0,0],[0.5,0,0,0,0],[0.5,1,0,0,0],[0.75,0,0,0,0],[0.75,1,0,0,0],[1,0.12,0,0,0],[1,0.31,0,0,0],[1,0.5,0,0,0],[1,0.69,0,0,0],[1,0.88,0,0,0]];" vertex="1" parent="1">
          <mxGeometry x="235" y="570" width="120" height="150" as="geometry" />
        </mxCell>
        <mxCell id="e-6Uy4bW49nk9TyTIGqh-28" value="&lt;font style=&quot;font-size: 8px;&quot;&gt;opcode&lt;/font&gt;" style="text;html=1;strokeColor=none;fillColor=none;align=center;verticalAlign=middle;whiteSpace=wrap;rounded=0;" vertex="1" parent="1">
          <mxGeometry x="245" y="570" width="30" height="20" as="geometry" />
        </mxCell>
        <mxCell id="e-6Uy4bW49nk9TyTIGqh-29" value="&lt;font style=&quot;font-size: 8px;&quot;&gt;funct3&lt;/font&gt;" style="text;html=1;strokeColor=none;fillColor=none;align=center;verticalAlign=middle;whiteSpace=wrap;rounded=0;" vertex="1" parent="1">
          <mxGeometry x="280" y="570" width="30" height="20" as="geometry" />
        </mxCell>
        <mxCell id="e-6Uy4bW49nk9TyTIGqh-30" value="&lt;font style=&quot;font-size: 8px;&quot;&gt;funct7&lt;/font&gt;" style="text;html=1;strokeColor=none;fillColor=none;align=center;verticalAlign=middle;whiteSpace=wrap;rounded=0;horizontal=1;" vertex="1" parent="1">
          <mxGeometry x="315" y="570" width="30" height="20" as="geometry" />
        </mxCell>
        <mxCell id="e-6Uy4bW49nk9TyTIGqh-31" style="edgeStyle=orthogonalEdgeStyle;rounded=0;orthogonalLoop=1;jettySize=auto;html=1;exitDx=0;exitDy=0;exitPerimeter=0;entryX=0;entryY=0.25;entryDx=0;entryDy=0;endArrow=open;endFill=0;" edge="1" parent="1" source="e-6Uy4bW49nk9TyTIGqh-42" target="e-6Uy4bW49nk9TyTIGqh-37">
          <mxGeometry relative="1" as="geometry">
            <Array as="points">
              <mxPoint x="856.4299999999998" y="295" />
              <mxPoint x="856.4299999999998" y="265" />
            </Array>
          </mxGeometry>
        </mxCell>
        <mxCell id="e-6Uy4bW49nk9TyTIGqh-32" value="" style="verticalLabelPosition=bottom;verticalAlign=top;html=1;shape=mxgraph.basic.polygon;polyCoords=[[0,0],[1,0.3],[1,0.5],[1,0.7],[0,1],[0,0.6],[0.2,0.5],[0,0.4]];polyline=0;shadow=0;aspect=fixed;points=[[0,0.21,0,0,0],[0,0.79,0,0,0],[0.57,0.83,0,0,0],[1,0.5,0,0,0]];" vertex="1" parent="1">
          <mxGeometry x="675" y="240" width="78.57" height="110" as="geometry" />
        </mxCell>
        <mxCell id="e-6Uy4bW49nk9TyTIGqh-33" style="edgeStyle=orthogonalEdgeStyle;rounded=0;orthogonalLoop=1;jettySize=auto;html=1;exitDx=0;exitDy=0;entryX=0.75;entryY=1;entryDx=0;entryDy=0;endArrow=open;endFill=0;" edge="1" parent="1" source="e-6Uy4bW49nk9TyTIGqh-95" target="e-6Uy4bW49nk9TyTIGqh-71">
          <mxGeometry relative="1" as="geometry">
            <Array as="points">
              <mxPoint x="545" y="263" />
            </Array>
          </mxGeometry>
        </mxCell>
        <mxCell id="e-6Uy4bW49nk9TyTIGqh-34" style="edgeStyle=orthogonalEdgeStyle;rounded=0;orthogonalLoop=1;jettySize=auto;html=1;exitX=1;exitY=0.5;exitDx=0;exitDy=0;entryX=0.6;entryY=1;entryDx=0;entryDy=0;entryPerimeter=0;endArrow=open;endFill=0;" edge="1" parent="1" source="e-6Uy4bW49nk9TyTIGqh-37" target="e-6Uy4bW49nk9TyTIGqh-126">
          <mxGeometry relative="1" as="geometry">
            <mxPoint x="1067.0549999999998" y="333.2950000000001" as="targetPoint" />
            <Array as="points">
              <mxPoint x="986" y="303" />
              <mxPoint x="1069" y="303" />
            </Array>
          </mxGeometry>
        </mxCell>
        <mxCell id="e-6Uy4bW49nk9TyTIGqh-157" style="edgeStyle=orthogonalEdgeStyle;rounded=0;orthogonalLoop=1;jettySize=auto;html=1;entryX=0.75;entryY=1;entryDx=0;entryDy=0;entryPerimeter=0;" edge="1" parent="1" source="e-6Uy4bW49nk9TyTIGqh-37" target="e-6Uy4bW49nk9TyTIGqh-3">
          <mxGeometry relative="1" as="geometry">
            <mxPoint x="921" y="440" as="targetPoint" />
            <Array as="points">
              <mxPoint x="921" y="420" />
              <mxPoint x="480" y="420" />
            </Array>
          </mxGeometry>
        </mxCell>
        <mxCell id="e-6Uy4bW49nk9TyTIGqh-37" value="&lt;font style=&quot;font-size: 8px;&quot;&gt;&lt;b&gt;Data&lt;br&gt;Memory&lt;/b&gt;&lt;/font&gt;" style="whiteSpace=wrap;html=1;" vertex="1" parent="1">
          <mxGeometry x="876.43" y="227.5" width="90" height="152.5" as="geometry" />
        </mxCell>
        <mxCell id="e-6Uy4bW49nk9TyTIGqh-38" style="edgeStyle=orthogonalEdgeStyle;shape=connector;rounded=0;orthogonalLoop=1;jettySize=auto;html=1;exitX=0.5;exitY=0;exitDx=0;exitDy=0;labelBackgroundColor=default;strokeColor=#000000;align=center;verticalAlign=middle;fontFamily=Helvetica;fontSize=11;fontColor=default;endArrow=open;entryX=0;entryY=0.75;entryDx=0;entryDy=0;entryPerimeter=0;endFill=0;" edge="1" parent="1" source="e-6Uy4bW49nk9TyTIGqh-126" target="e-6Uy4bW49nk9TyTIGqh-3">
          <mxGeometry relative="1" as="geometry">
            <mxPoint x="825" y="541.3333740234375" as="targetPoint" />
            <mxPoint x="1095.8049999999998" y="302.4949999999999" as="sourcePoint" />
            <Array as="points">
              <mxPoint x="1091" y="302" />
              <mxPoint x="1135" y="302" />
              <mxPoint x="1135" y="400" />
              <mxPoint x="375" y="400" />
              <mxPoint x="375" y="348" />
            </Array>
          </mxGeometry>
        </mxCell>
        <mxCell id="e-6Uy4bW49nk9TyTIGqh-39" value="" style="edgeStyle=orthogonalEdgeStyle;rounded=0;orthogonalLoop=1;jettySize=auto;html=1;exitX=1;exitY=0.5;exitDx=0;exitDy=0;entryDx=0;entryDy=0;endArrow=none;endFill=0;entryX=0.434;entryY=0.63;entryPerimeter=0;exitPerimeter=0;" edge="1" parent="1" source="e-6Uy4bW49nk9TyTIGqh-32" target="e-6Uy4bW49nk9TyTIGqh-42">
          <mxGeometry relative="1" as="geometry">
            <mxPoint x="804.9999999999997" y="295" as="sourcePoint" />
            <mxPoint x="804.9999999999998" y="304.86" as="targetPoint" />
            <Array as="points">
              <mxPoint x="785" y="295" />
              <mxPoint x="785" y="295" />
            </Array>
          </mxGeometry>
        </mxCell>
        <mxCell id="e-6Uy4bW49nk9TyTIGqh-40" style="edgeStyle=orthogonalEdgeStyle;rounded=0;orthogonalLoop=1;jettySize=auto;html=1;entryX=0.4;entryY=1;entryDx=0;entryDy=0;entryPerimeter=0;endArrow=open;endFill=0;" edge="1" parent="1" source="e-6Uy4bW49nk9TyTIGqh-104" target="e-6Uy4bW49nk9TyTIGqh-126">
          <mxGeometry relative="1" as="geometry">
            <mxPoint x="1067.0549999999998" y="302.4949999999999" as="targetPoint" />
            <Array as="points">
              <mxPoint x="1016" y="200" />
              <mxPoint x="1016" y="290" />
              <mxPoint x="1069" y="290" />
            </Array>
          </mxGeometry>
        </mxCell>
        <mxCell id="e-6Uy4bW49nk9TyTIGqh-41" style="edgeStyle=orthogonalEdgeStyle;shape=connector;rounded=0;orthogonalLoop=1;jettySize=auto;html=1;entryX=0;entryY=0.5;entryDx=0;entryDy=0;labelBackgroundColor=default;strokeColor=#0000ff;align=center;verticalAlign=middle;fontFamily=Helvetica;fontSize=11;fontColor=default;endArrow=open;endFill=0;" edge="1" parent="1" source="e-6Uy4bW49nk9TyTIGqh-42" target="e-6Uy4bW49nk9TyTIGqh-113">
          <mxGeometry relative="1" as="geometry">
            <Array as="points">
              <mxPoint x="835" y="295" />
              <mxPoint x="835" y="515" />
            </Array>
          </mxGeometry>
        </mxCell>
        <mxCell id="e-6Uy4bW49nk9TyTIGqh-42" value="" style="shape=waypoint;sketch=0;fillStyle=solid;size=6;pointerEvents=1;points=[];fillColor=none;resizable=0;rotatable=0;perimeter=centerPerimeter;snapToPoint=1;" vertex="1" parent="1">
          <mxGeometry x="824.4299999999998" y="285" width="20" height="20" as="geometry" />
        </mxCell>
        <mxCell id="e-6Uy4bW49nk9TyTIGqh-43" style="edgeStyle=orthogonalEdgeStyle;rounded=0;orthogonalLoop=1;jettySize=auto;html=1;entryX=0;entryY=0.5;entryDx=0;entryDy=0;endArrow=open;endFill=0;" edge="1" parent="1" source="e-6Uy4bW49nk9TyTIGqh-51" target="e-6Uy4bW49nk9TyTIGqh-4">
          <mxGeometry relative="1" as="geometry" />
        </mxCell>
        <mxCell id="e-6Uy4bW49nk9TyTIGqh-44" value="&lt;font style=&quot;font-size: 8px;&quot;&gt;&lt;b&gt;Program&lt;br&gt;Counter&lt;/b&gt;&lt;/font&gt;" style="rounded=0;whiteSpace=wrap;html=1;" vertex="1" parent="1">
          <mxGeometry x="-85" y="255.93" width="70" height="93.13" as="geometry" />
        </mxCell>
        <mxCell id="e-6Uy4bW49nk9TyTIGqh-45" value="" style="triangle;whiteSpace=wrap;html=1;rotation=-90;" vertex="1" parent="1">
          <mxGeometry x="-60" y="329.05999999999995" width="20" height="20" as="geometry" />
        </mxCell>
        <mxCell id="e-6Uy4bW49nk9TyTIGqh-46" value="&lt;b&gt;+&lt;/b&gt;" style="ellipse;whiteSpace=wrap;html=1;aspect=fixed;" vertex="1" parent="1">
          <mxGeometry x="951.4299999999998" y="135" width="30" height="30" as="geometry" />
        </mxCell>
        <mxCell id="e-6Uy4bW49nk9TyTIGqh-47" style="edgeStyle=orthogonalEdgeStyle;rounded=0;orthogonalLoop=1;jettySize=auto;html=1;entryX=0.2;entryY=1;entryDx=0;entryDy=0;entryPerimeter=0;endArrow=open;endFill=0;" edge="1" parent="1" source="e-6Uy4bW49nk9TyTIGqh-46" target="e-6Uy4bW49nk9TyTIGqh-126">
          <mxGeometry relative="1" as="geometry">
            <mxPoint x="1067.0549999999998" y="271.6949999999997" as="targetPoint" />
            <Array as="points">
              <mxPoint x="1046" y="150" />
              <mxPoint x="1046" y="275" />
            </Array>
          </mxGeometry>
        </mxCell>
        <mxCell id="e-6Uy4bW49nk9TyTIGqh-48" value="" style="edgeStyle=orthogonalEdgeStyle;rounded=0;orthogonalLoop=1;jettySize=auto;html=1;entryDx=0;entryDy=0;endArrow=none;endFill=0;" edge="1" parent="1" source="e-6Uy4bW49nk9TyTIGqh-44" target="e-6Uy4bW49nk9TyTIGqh-51">
          <mxGeometry relative="1" as="geometry">
            <mxPoint x="-15" y="302" as="sourcePoint" />
            <mxPoint x="65" y="303" as="targetPoint" />
          </mxGeometry>
        </mxCell>
        <mxCell id="e-6Uy4bW49nk9TyTIGqh-49" style="edgeStyle=orthogonalEdgeStyle;rounded=0;orthogonalLoop=1;jettySize=auto;html=1;entryX=0;entryY=0.5;entryDx=0;entryDy=0;endArrow=open;endFill=0;" edge="1" parent="1" source="e-6Uy4bW49nk9TyTIGqh-124" target="e-6Uy4bW49nk9TyTIGqh-46">
          <mxGeometry relative="1" as="geometry">
            <mxPoint x="816.43" y="160" as="targetPoint" />
            <Array as="points">
              <mxPoint x="816.43" y="150" />
              <mxPoint x="816.43" y="150" />
            </Array>
          </mxGeometry>
        </mxCell>
        <mxCell id="e-6Uy4bW49nk9TyTIGqh-50" style="edgeStyle=orthogonalEdgeStyle;rounded=0;orthogonalLoop=1;jettySize=auto;html=1;entryX=1;entryY=0.5;entryDx=0;entryDy=0;endArrow=open;endFill=0;" edge="1" parent="1" source="e-6Uy4bW49nk9TyTIGqh-51" target="e-6Uy4bW49nk9TyTIGqh-53">
          <mxGeometry relative="1" as="geometry">
            <Array as="points">
              <mxPoint x="25" y="405" />
            </Array>
          </mxGeometry>
        </mxCell>
        <mxCell id="e-6Uy4bW49nk9TyTIGqh-51" value="" style="shape=waypoint;sketch=0;fillStyle=solid;size=6;pointerEvents=1;points=[];fillColor=none;resizable=0;rotatable=0;perimeter=centerPerimeter;snapToPoint=1;" vertex="1" parent="1">
          <mxGeometry x="15" y="292.5" width="20" height="20" as="geometry" />
        </mxCell>
        <mxCell id="e-6Uy4bW49nk9TyTIGqh-52" style="edgeStyle=orthogonalEdgeStyle;rounded=0;orthogonalLoop=1;jettySize=auto;html=1;exitX=0.5;exitY=0;exitDx=0;exitDy=0;entryX=0.25;entryY=1;entryDx=0;entryDy=0;endArrow=open;endFill=0;" edge="1" parent="1" source="e-6Uy4bW49nk9TyTIGqh-80" target="e-6Uy4bW49nk9TyTIGqh-144">
          <mxGeometry relative="1" as="geometry">
            <Array as="points" />
          </mxGeometry>
        </mxCell>
        <mxCell id="e-6Uy4bW49nk9TyTIGqh-53" value="&lt;b&gt;+&lt;/b&gt;" style="ellipse;whiteSpace=wrap;html=1;aspect=fixed;" vertex="1" parent="1">
          <mxGeometry x="-70" y="390" width="30" height="30" as="geometry" />
        </mxCell>
        <mxCell id="e-6Uy4bW49nk9TyTIGqh-54" style="edgeStyle=orthogonalEdgeStyle;rounded=0;orthogonalLoop=1;jettySize=auto;html=1;entryX=0.5;entryY=1;entryDx=0;entryDy=0;endArrow=open;endFill=0;" edge="1" parent="1" source="e-6Uy4bW49nk9TyTIGqh-55" target="e-6Uy4bW49nk9TyTIGqh-53">
          <mxGeometry relative="1" as="geometry" />
        </mxCell>
        <mxCell id="e-6Uy4bW49nk9TyTIGqh-55" value="&lt;b&gt;32&#39;d4&lt;/b&gt;" style="text;html=1;strokeColor=none;fillColor=none;align=center;verticalAlign=middle;whiteSpace=wrap;rounded=0;" vertex="1" parent="1">
          <mxGeometry x="-85" y="460" width="60" height="30" as="geometry" />
        </mxCell>
        <mxCell id="e-6Uy4bW49nk9TyTIGqh-56" style="edgeStyle=orthogonalEdgeStyle;rounded=0;orthogonalLoop=1;jettySize=auto;html=1;entryX=0.5;entryY=0;entryDx=0;entryDy=0;endArrow=open;endFill=0;" edge="1" parent="1" source="e-6Uy4bW49nk9TyTIGqh-57" target="e-6Uy4bW49nk9TyTIGqh-46">
          <mxGeometry relative="1" as="geometry" />
        </mxCell>
        <mxCell id="e-6Uy4bW49nk9TyTIGqh-57" value="&lt;b&gt;32&#39;d4&lt;/b&gt;" style="text;html=1;strokeColor=none;fillColor=none;align=center;verticalAlign=middle;whiteSpace=wrap;rounded=0;" vertex="1" parent="1">
          <mxGeometry x="936.4299999999998" y="70" width="60" height="30" as="geometry" />
        </mxCell>
        <mxCell id="e-6Uy4bW49nk9TyTIGqh-58" value="&lt;font style=&quot;font-size: 8px;&quot;&gt;addr&lt;/font&gt;" style="text;html=1;strokeColor=none;fillColor=none;align=center;verticalAlign=middle;whiteSpace=wrap;rounded=0;" vertex="1" parent="1">
          <mxGeometry x="65" y="297.49" width="30" height="10" as="geometry" />
        </mxCell>
        <mxCell id="e-6Uy4bW49nk9TyTIGqh-59" style="edgeStyle=orthogonalEdgeStyle;rounded=0;orthogonalLoop=1;jettySize=auto;html=1;entryX=1;entryY=0.5;entryDx=0;entryDy=0;strokeColor=GREEN;endArrow=open;endFill=0;" edge="1" parent="1" target="e-6Uy4bW49nk9TyTIGqh-61">
          <mxGeometry relative="1" as="geometry">
            <mxPoint x="630" y="400" as="sourcePoint" />
          </mxGeometry>
        </mxCell>
        <mxCell id="e-6Uy4bW49nk9TyTIGqh-60" value="&lt;font color=&quot;#ff0000&quot;&gt;sel-b&lt;/font&gt;" style="edgeLabel;html=1;align=center;verticalAlign=middle;resizable=0;points=[];fontSize=11;fontFamily=Helvetica;fontColor=default;" connectable="0" vertex="1" parent="e-6Uy4bW49nk9TyTIGqh-59">
          <mxGeometry x="-0.8593" y="1" relative="1" as="geometry">
            <mxPoint x="1" y="2" as="offset" />
          </mxGeometry>
        </mxCell>
        <mxCell id="e-6Uy4bW49nk9TyTIGqh-61" value="" style="shape=trapezoid;perimeter=trapezoidPerimeter;whiteSpace=wrap;html=1;fixedSize=1;rotation=90;size=13.269999999999982;" vertex="1" parent="1">
          <mxGeometry x="595" y="333" width="70" height="22.2" as="geometry" />
        </mxCell>
        <mxCell id="e-6Uy4bW49nk9TyTIGqh-62" style="edgeStyle=orthogonalEdgeStyle;rounded=0;orthogonalLoop=1;jettySize=auto;html=1;exitX=0.5;exitY=0;exitDx=0;exitDy=0;exitPerimeter=0;entryX=0;entryY=0.79;entryDx=0;entryDy=0;entryPerimeter=0;endArrow=open;endFill=0;" edge="1" parent="1" source="e-6Uy4bW49nk9TyTIGqh-61" target="e-6Uy4bW49nk9TyTIGqh-32">
          <mxGeometry relative="1" as="geometry">
            <Array as="points">
              <mxPoint x="655" y="346" />
              <mxPoint x="655" y="327" />
            </Array>
          </mxGeometry>
        </mxCell>
        <mxCell id="e-6Uy4bW49nk9TyTIGqh-63" style="edgeStyle=orthogonalEdgeStyle;rounded=0;orthogonalLoop=1;jettySize=auto;html=1;entryX=0.75;entryY=1;entryDx=0;entryDy=0;exitX=1;exitY=0.5;exitDx=0;exitDy=0;endArrow=open;endFill=0;" edge="1" parent="1" source="e-6Uy4bW49nk9TyTIGqh-66" target="e-6Uy4bW49nk9TyTIGqh-61">
          <mxGeometry relative="1" as="geometry">
            <Array as="points">
              <mxPoint x="585" y="475" />
              <mxPoint x="585" y="362" />
            </Array>
          </mxGeometry>
        </mxCell>
        <mxCell id="e-6Uy4bW49nk9TyTIGqh-64" style="edgeStyle=orthogonalEdgeStyle;rounded=0;orthogonalLoop=1;jettySize=auto;html=1;strokeColor=#FF0000;endArrow=open;endFill=0;" edge="1" parent="1" target="e-6Uy4bW49nk9TyTIGqh-66">
          <mxGeometry relative="1" as="geometry">
            <mxPoint x="434" y="529" as="sourcePoint" />
          </mxGeometry>
        </mxCell>
        <mxCell id="e-6Uy4bW49nk9TyTIGqh-65" value="&lt;font color=&quot;#ff0000&quot;&gt;inst&lt;/font&gt;" style="edgeLabel;html=1;align=center;verticalAlign=middle;resizable=0;points=[];fontSize=11;fontFamily=Helvetica;fontColor=default;" connectable="0" vertex="1" parent="e-6Uy4bW49nk9TyTIGqh-64">
          <mxGeometry x="-0.6403" y="1" relative="1" as="geometry">
            <mxPoint x="2" y="5" as="offset" />
          </mxGeometry>
        </mxCell>
        <mxCell id="e-6Uy4bW49nk9TyTIGqh-66" value="&lt;font style=&quot;font-size: 8px;&quot;&gt;&lt;b&gt;Immediate&lt;br&gt;Generator&lt;/b&gt;&lt;/font&gt;" style="rounded=0;whiteSpace=wrap;html=1;" vertex="1" parent="1">
          <mxGeometry x="385" y="449" width="100" height="50" as="geometry" />
        </mxCell>
        <mxCell id="e-6Uy4bW49nk9TyTIGqh-67" style="edgeStyle=orthogonalEdgeStyle;rounded=0;orthogonalLoop=1;jettySize=auto;html=1;entryX=0;entryY=0.5;entryDx=0;entryDy=0;endArrow=open;endFill=0;" edge="1" parent="1" source="e-6Uy4bW49nk9TyTIGqh-68" target="e-6Uy4bW49nk9TyTIGqh-66">
          <mxGeometry relative="1" as="geometry">
            <Array as="points">
              <mxPoint x="205" y="474" />
            </Array>
          </mxGeometry>
        </mxCell>
        <mxCell id="e-6Uy4bW49nk9TyTIGqh-68" value="" style="shape=waypoint;sketch=0;fillStyle=solid;size=6;pointerEvents=1;points=[];fillColor=none;resizable=0;rotatable=0;perimeter=centerPerimeter;snapToPoint=1;" vertex="1" parent="1">
          <mxGeometry x="195" y="285" width="20" height="20" as="geometry" />
        </mxCell>
        <mxCell id="e-6Uy4bW49nk9TyTIGqh-69" style="edgeStyle=orthogonalEdgeStyle;rounded=0;orthogonalLoop=1;jettySize=auto;html=1;entryX=1;entryY=0.5;entryDx=0;entryDy=0;strokeColor=GREEN;endArrow=open;endFill=0;" edge="1" parent="1" target="e-6Uy4bW49nk9TyTIGqh-71">
          <mxGeometry relative="1" as="geometry">
            <mxPoint x="630" y="300" as="sourcePoint" />
            <Array as="points">
              <mxPoint x="630" y="290" />
              <mxPoint x="630" y="290" />
            </Array>
          </mxGeometry>
        </mxCell>
        <mxCell id="e-6Uy4bW49nk9TyTIGqh-70" value="&lt;font color=&quot;#ff0000&quot;&gt;&amp;nbsp;&lt;/font&gt;" style="edgeLabel;html=1;align=center;verticalAlign=middle;resizable=0;points=[];fontSize=11;fontFamily=Helvetica;fontColor=default;fillColor=#190033;" connectable="0" vertex="1" parent="e-6Uy4bW49nk9TyTIGqh-69">
          <mxGeometry x="-0.9068" y="-1" relative="1" as="geometry">
            <mxPoint as="offset" />
          </mxGeometry>
        </mxCell>
        <mxCell id="e-6Uy4bW49nk9TyTIGqh-71" value="" style="shape=trapezoid;perimeter=trapezoidPerimeter;whiteSpace=wrap;html=1;fixedSize=1;rotation=90;size=13.269999999999982;" vertex="1" parent="1">
          <mxGeometry x="595" y="233.89999999999998" width="70" height="22.2" as="geometry" />
        </mxCell>
        <mxCell id="e-6Uy4bW49nk9TyTIGqh-72" value="" style="edgeStyle=orthogonalEdgeStyle;rounded=0;orthogonalLoop=1;jettySize=auto;html=1;endArrow=none;endFill=0;" edge="1" parent="1" source="e-6Uy4bW49nk9TyTIGqh-97" target="e-6Uy4bW49nk9TyTIGqh-51">
          <mxGeometry relative="1" as="geometry">
            <mxPoint x="565" y="170" as="sourcePoint" />
            <mxPoint x="-145" y="285" as="targetPoint" />
            <Array as="points">
              <mxPoint x="25" y="150" />
            </Array>
          </mxGeometry>
        </mxCell>
        <mxCell id="e-6Uy4bW49nk9TyTIGqh-73" style="edgeStyle=orthogonalEdgeStyle;rounded=0;orthogonalLoop=1;jettySize=auto;html=1;entryX=0.25;entryY=1;entryDx=0;entryDy=0;endArrow=open;endFill=0;" edge="1" parent="1" source="e-6Uy4bW49nk9TyTIGqh-97" target="e-6Uy4bW49nk9TyTIGqh-71">
          <mxGeometry relative="1" as="geometry">
            <mxPoint x="585" y="170" as="sourcePoint" />
            <Array as="points">
              <mxPoint x="585" y="228" />
            </Array>
          </mxGeometry>
        </mxCell>
        <mxCell id="e-6Uy4bW49nk9TyTIGqh-74" style="edgeStyle=orthogonalEdgeStyle;rounded=0;orthogonalLoop=1;jettySize=auto;html=1;entryX=0;entryY=0.21;entryDx=0;entryDy=0;entryPerimeter=0;exitX=0.5;exitY=0;exitDx=0;exitDy=0;endArrow=open;endFill=0;" edge="1" parent="1" source="e-6Uy4bW49nk9TyTIGqh-71" target="e-6Uy4bW49nk9TyTIGqh-32">
          <mxGeometry relative="1" as="geometry">
            <mxPoint x="635" y="260" as="sourcePoint" />
            <Array as="points">
              <mxPoint x="655" y="245" />
              <mxPoint x="655" y="263" />
            </Array>
          </mxGeometry>
        </mxCell>
        <mxCell id="e-6Uy4bW49nk9TyTIGqh-75" style="edgeStyle=orthogonalEdgeStyle;shape=connector;rounded=0;orthogonalLoop=1;jettySize=auto;html=1;labelBackgroundColor=default;strokeColor=#000000;align=center;verticalAlign=middle;fontFamily=Helvetica;fontSize=11;fontColor=default;endArrow=open;exitX=1;exitY=0.75;exitDx=0;exitDy=0;entryX=0;entryY=0.5;entryDx=0;entryDy=0;endFill=0;" edge="1" parent="1" source="e-6Uy4bW49nk9TyTIGqh-82" target="e-6Uy4bW49nk9TyTIGqh-81">
          <mxGeometry relative="1" as="geometry">
            <mxPoint x="245" y="626.5" as="targetPoint" />
            <mxPoint x="755.71" y="521.5" as="sourcePoint" />
            <Array as="points">
              <mxPoint x="745" y="520" />
              <mxPoint x="745" y="770" />
              <mxPoint x="185" y="770" />
              <mxPoint x="185" y="645" />
            </Array>
          </mxGeometry>
        </mxCell>
        <mxCell id="e-6Uy4bW49nk9TyTIGqh-76" value="&lt;font style=&quot;font-size: 8px;&quot;&gt;&lt;b&gt;Branch&lt;br&gt;Comparator&lt;/b&gt;&lt;/font&gt;" style="whiteSpace=wrap;html=1;fontFamily=Helvetica;fontSize=11;fontColor=default;" vertex="1" parent="1">
          <mxGeometry x="624.29" y="490" width="80.71" height="60" as="geometry" />
        </mxCell>
        <mxCell id="e-6Uy4bW49nk9TyTIGqh-77" style="edgeStyle=orthogonalEdgeStyle;shape=connector;rounded=0;orthogonalLoop=1;jettySize=auto;html=1;entryX=0;entryY=1;entryDx=0;entryDy=0;labelBackgroundColor=default;strokeColor=#000000;align=center;verticalAlign=middle;fontFamily=Helvetica;fontSize=11;fontColor=default;endArrow=open;endFill=0;" edge="1" parent="1" source="e-6Uy4bW49nk9TyTIGqh-95" target="e-6Uy4bW49nk9TyTIGqh-83">
          <mxGeometry relative="1" as="geometry">
            <mxPoint x="635" y="280" as="sourcePoint" />
            <mxPoint x="675.0000000000002" y="507" as="targetPoint" />
            <Array as="points">
              <mxPoint x="545" y="507" />
            </Array>
          </mxGeometry>
        </mxCell>
        <mxCell id="e-6Uy4bW49nk9TyTIGqh-78" style="edgeStyle=orthogonalEdgeStyle;shape=connector;rounded=0;orthogonalLoop=1;jettySize=auto;html=1;labelBackgroundColor=default;strokeColor=#000000;align=center;verticalAlign=middle;fontFamily=Helvetica;fontSize=11;fontColor=default;endArrow=open;entryX=0;entryY=0.75;entryDx=0;entryDy=0;endFill=0;" edge="1" parent="1" source="e-6Uy4bW49nk9TyTIGqh-93" target="e-6Uy4bW49nk9TyTIGqh-76">
          <mxGeometry relative="1" as="geometry">
            <mxPoint x="615" y="250" as="targetPoint" />
            <mxPoint x="535" y="330" as="sourcePoint" />
            <Array as="points">
              <mxPoint x="525" y="535" />
            </Array>
          </mxGeometry>
        </mxCell>
        <mxCell id="e-6Uy4bW49nk9TyTIGqh-79" value="" style="edgeStyle=orthogonalEdgeStyle;rounded=0;orthogonalLoop=1;jettySize=auto;html=1;exitX=0;exitY=0.5;exitDx=0;exitDy=0;entryX=0.75;entryY=1;entryDx=0;entryDy=0;endArrow=open;endFill=0;" edge="1" parent="1" source="e-6Uy4bW49nk9TyTIGqh-53" target="e-6Uy4bW49nk9TyTIGqh-80">
          <mxGeometry relative="1" as="geometry">
            <mxPoint x="-70" y="405" as="sourcePoint" />
            <mxPoint x="-85" y="302" as="targetPoint" />
            <Array as="points">
              <mxPoint x="-285" y="405" />
              <mxPoint x="-285" y="319" />
            </Array>
          </mxGeometry>
        </mxCell>
        <mxCell id="e-6Uy4bW49nk9TyTIGqh-80" value="" style="shape=trapezoid;perimeter=trapezoidPerimeter;whiteSpace=wrap;html=1;fixedSize=1;rotation=90;size=13.269999999999982;" vertex="1" parent="1">
          <mxGeometry x="-245" y="289.9999999999999" width="70" height="22.2" as="geometry" />
        </mxCell>
        <mxCell id="e-6Uy4bW49nk9TyTIGqh-81" value="&lt;font style=&quot;font-size: 8px;&quot;&gt;comp&lt;/font&gt;" style="text;html=1;strokeColor=none;fillColor=none;align=center;verticalAlign=middle;whiteSpace=wrap;rounded=0;" vertex="1" parent="1">
          <mxGeometry x="235" y="635" width="30" height="20" as="geometry" />
        </mxCell>
        <mxCell id="e-6Uy4bW49nk9TyTIGqh-82" value="&lt;font style=&quot;font-size: 6px;&quot;&gt;comp&lt;/font&gt;" style="text;html=1;strokeColor=none;fillColor=none;align=center;verticalAlign=middle;whiteSpace=wrap;rounded=0;" vertex="1" parent="1">
          <mxGeometry x="685" y="513" width="20" height="10" as="geometry" />
        </mxCell>
        <mxCell id="e-6Uy4bW49nk9TyTIGqh-83" value="&lt;font style=&quot;font-size: 6px;&quot;&gt;opr_a&lt;/font&gt;" style="text;html=1;strokeColor=none;fillColor=none;align=center;verticalAlign=middle;whiteSpace=wrap;rounded=0;" vertex="1" parent="1">
          <mxGeometry x="624.29" y="499" width="20" height="8" as="geometry" />
        </mxCell>
        <mxCell id="e-6Uy4bW49nk9TyTIGqh-84" value="&lt;font style=&quot;font-size: 6px;&quot;&gt;opr_b&lt;/font&gt;" style="text;html=1;strokeColor=none;fillColor=none;align=center;verticalAlign=middle;whiteSpace=wrap;rounded=0;" vertex="1" parent="1">
          <mxGeometry x="624.29" y="529" width="20" height="8" as="geometry" />
        </mxCell>
        <mxCell id="e-6Uy4bW49nk9TyTIGqh-85" value="&lt;font style=&quot;font-size: 6px;&quot;&gt;pc_in&lt;/font&gt;" style="text;html=1;strokeColor=none;fillColor=none;align=center;verticalAlign=middle;whiteSpace=wrap;rounded=0;" vertex="1" parent="1">
          <mxGeometry x="-85" y="293" width="20" height="15" as="geometry" />
        </mxCell>
        <mxCell id="e-6Uy4bW49nk9TyTIGqh-86" value="&lt;font style=&quot;font-size: 6px;&quot;&gt;pc_out&lt;/font&gt;" style="text;html=1;strokeColor=none;fillColor=none;align=center;verticalAlign=middle;whiteSpace=wrap;rounded=0;" vertex="1" parent="1">
          <mxGeometry x="-37" y="296" width="22" height="10" as="geometry" />
        </mxCell>
        <mxCell id="e-6Uy4bW49nk9TyTIGqh-87" style="edgeStyle=orthogonalEdgeStyle;shape=connector;rounded=0;orthogonalLoop=1;jettySize=auto;html=1;entryX=0;entryY=0.75;entryDx=0;entryDy=0;labelBackgroundColor=default;strokeColor=#000000;align=center;verticalAlign=middle;fontFamily=Helvetica;fontSize=11;fontColor=default;endArrow=open;endFill=0;" edge="1" parent="1" source="e-6Uy4bW49nk9TyTIGqh-90" target="e-6Uy4bW49nk9TyTIGqh-37">
          <mxGeometry relative="1" as="geometry">
            <Array as="points">
              <mxPoint x="565" y="410" />
              <mxPoint x="780" y="410" />
              <mxPoint x="780" y="340" />
            </Array>
          </mxGeometry>
        </mxCell>
        <mxCell id="e-6Uy4bW49nk9TyTIGqh-88" value="&lt;font style=&quot;font-size: 8px;&quot;&gt;rdata2&lt;/font&gt;" style="text;html=1;strokeColor=none;fillColor=none;align=center;verticalAlign=middle;whiteSpace=wrap;rounded=0;" vertex="1" parent="1">
          <mxGeometry x="475" y="320" width="30" height="10" as="geometry" />
        </mxCell>
        <mxCell id="e-6Uy4bW49nk9TyTIGqh-89" value="&lt;font style=&quot;font-size: 8px;&quot;&gt;rdata1&lt;/font&gt;" style="text;html=1;strokeColor=none;fillColor=none;align=center;verticalAlign=middle;whiteSpace=wrap;rounded=0;" vertex="1" parent="1">
          <mxGeometry x="475" y="256.1" width="30" height="10" as="geometry" />
        </mxCell>
        <mxCell id="e-6Uy4bW49nk9TyTIGqh-90" value="" style="shape=waypoint;sketch=0;fillStyle=solid;size=6;pointerEvents=1;points=[];fillColor=none;resizable=0;rotatable=0;perimeter=centerPerimeter;snapToPoint=1;fontFamily=Helvetica;fontSize=11;fontColor=default;" vertex="1" parent="1">
          <mxGeometry x="555" y="316.87" width="20" height="20" as="geometry" />
        </mxCell>
        <mxCell id="e-6Uy4bW49nk9TyTIGqh-91" value="" style="edgeStyle=orthogonalEdgeStyle;rounded=0;orthogonalLoop=1;jettySize=auto;html=1;entryDx=0;entryDy=0;entryPerimeter=0;exitX=1;exitY=0.63;exitDx=0;exitDy=0;exitPerimeter=0;endArrow=none;endFill=0;" edge="1" parent="1" source="e-6Uy4bW49nk9TyTIGqh-3" target="e-6Uy4bW49nk9TyTIGqh-93">
          <mxGeometry relative="1" as="geometry">
            <mxPoint x="505" y="327" as="sourcePoint" />
            <mxPoint x="555" y="327" as="targetPoint" />
            <Array as="points" />
          </mxGeometry>
        </mxCell>
        <mxCell id="e-6Uy4bW49nk9TyTIGqh-92" style="edgeStyle=orthogonalEdgeStyle;shape=connector;rounded=0;orthogonalLoop=1;jettySize=auto;html=1;entryX=0.25;entryY=1;entryDx=0;entryDy=0;labelBackgroundColor=default;strokeColor=#000000;align=center;verticalAlign=middle;fontFamily=Helvetica;fontSize=11;fontColor=default;endArrow=open;endFill=0;" edge="1" parent="1" source="e-6Uy4bW49nk9TyTIGqh-93" target="e-6Uy4bW49nk9TyTIGqh-61">
          <mxGeometry relative="1" as="geometry" />
        </mxCell>
        <mxCell id="e-6Uy4bW49nk9TyTIGqh-93" value="" style="shape=waypoint;sketch=0;fillStyle=solid;size=6;pointerEvents=1;points=[];fillColor=none;resizable=0;rotatable=0;perimeter=centerPerimeter;snapToPoint=1;fontFamily=Helvetica;fontSize=11;fontColor=default;" vertex="1" parent="1">
          <mxGeometry x="515" y="316.87" width="20" height="20" as="geometry" />
        </mxCell>
        <mxCell id="e-6Uy4bW49nk9TyTIGqh-94" value="" style="edgeStyle=orthogonalEdgeStyle;rounded=0;orthogonalLoop=1;jettySize=auto;html=1;exitX=1;exitY=0.25;exitDx=0;exitDy=0;exitPerimeter=0;endArrow=none;endFill=0;" edge="1" parent="1" source="e-6Uy4bW49nk9TyTIGqh-3" target="e-6Uy4bW49nk9TyTIGqh-95">
          <mxGeometry relative="1" as="geometry">
            <mxPoint x="505" y="263" as="sourcePoint" />
            <mxPoint x="525" y="280" as="targetPoint" />
          </mxGeometry>
        </mxCell>
        <mxCell id="e-6Uy4bW49nk9TyTIGqh-95" value="" style="shape=waypoint;sketch=0;fillStyle=solid;size=6;pointerEvents=1;points=[];fillColor=none;resizable=0;rotatable=0;perimeter=centerPerimeter;snapToPoint=1;fontFamily=Helvetica;fontSize=11;fontColor=default;" vertex="1" parent="1">
          <mxGeometry x="535" y="252.10000000000002" width="20" height="20" as="geometry" />
        </mxCell>
        <mxCell id="e-6Uy4bW49nk9TyTIGqh-96" value="" style="edgeStyle=orthogonalEdgeStyle;rounded=0;orthogonalLoop=1;jettySize=auto;html=1;entryDx=0;entryDy=0;endArrow=open;endFill=0;" edge="1" parent="1" target="e-6Uy4bW49nk9TyTIGqh-97">
          <mxGeometry relative="1" as="geometry">
            <mxPoint x="585" y="150" as="sourcePoint" />
            <mxPoint x="619" y="207" as="targetPoint" />
            <Array as="points" />
          </mxGeometry>
        </mxCell>
        <mxCell id="e-6Uy4bW49nk9TyTIGqh-97" value="" style="shape=waypoint;sketch=0;fillStyle=solid;size=6;pointerEvents=1;points=[];fillColor=none;resizable=0;rotatable=0;perimeter=centerPerimeter;snapToPoint=1;" vertex="1" parent="1">
          <mxGeometry x="575" y="140" width="20" height="20" as="geometry" />
        </mxCell>
        <mxCell id="e-6Uy4bW49nk9TyTIGqh-98" style="edgeStyle=orthogonalEdgeStyle;shape=connector;rounded=0;orthogonalLoop=1;jettySize=auto;html=1;labelBackgroundColor=default;strokeColor=#ff0000;align=center;verticalAlign=middle;fontFamily=Helvetica;fontSize=11;fontColor=default;endArrow=open;entryX=1;entryY=0.5;entryDx=0;entryDy=0;endFill=0;" edge="1" parent="1" target="e-6Uy4bW49nk9TyTIGqh-126">
          <mxGeometry relative="1" as="geometry">
            <mxPoint x="1079.5" y="331.54499999999996" as="targetPoint" />
            <mxPoint x="1080.5" y="360.68999999999994" as="sourcePoint" />
            <Array as="points">
              <mxPoint x="1080" y="331" />
              <mxPoint x="1080" y="331" />
            </Array>
          </mxGeometry>
        </mxCell>
        <mxCell id="e-6Uy4bW49nk9TyTIGqh-99" value="&lt;font color=&quot;#ff0000&quot;&gt;wb_sel&lt;/font&gt;" style="edgeLabel;html=1;align=center;verticalAlign=middle;resizable=0;points=[];fontSize=11;fontFamily=Helvetica;fontColor=default;" connectable="0" vertex="1" parent="e-6Uy4bW49nk9TyTIGqh-98">
          <mxGeometry x="-0.3771" relative="1" as="geometry">
            <mxPoint y="8" as="offset" />
          </mxGeometry>
        </mxCell>
        <mxCell id="e-6Uy4bW49nk9TyTIGqh-102" value="" style="edgeStyle=orthogonalEdgeStyle;rounded=0;orthogonalLoop=1;jettySize=auto;html=1;entryDx=0;entryDy=0;entryPerimeter=0;endArrow=none;endFill=0;" edge="1" parent="1" source="e-6Uy4bW49nk9TyTIGqh-42" target="e-6Uy4bW49nk9TyTIGqh-104">
          <mxGeometry relative="1" as="geometry">
            <mxPoint x="1067.4299999999998" y="302" as="targetPoint" />
            <mxPoint x="835" y="290" as="sourcePoint" />
            <Array as="points" />
          </mxGeometry>
        </mxCell>
        <mxCell id="e-6Uy4bW49nk9TyTIGqh-103" style="edgeStyle=orthogonalEdgeStyle;shape=connector;rounded=0;orthogonalLoop=1;jettySize=auto;html=1;entryX=0.25;entryY=1;entryDx=0;entryDy=0;labelBackgroundColor=default;strokeColor=#000000;align=center;verticalAlign=middle;fontFamily=Helvetica;fontSize=11;fontColor=default;endArrow=open;endFill=0;" edge="1" parent="1" source="e-6Uy4bW49nk9TyTIGqh-104" target="e-6Uy4bW49nk9TyTIGqh-80">
          <mxGeometry relative="1" as="geometry">
            <Array as="points">
              <mxPoint x="-285" y="200" />
              <mxPoint x="-285" y="284" />
              <mxPoint x="-265" y="284" />
            </Array>
          </mxGeometry>
        </mxCell>
        <mxCell id="e-6Uy4bW49nk9TyTIGqh-104" value="" style="shape=waypoint;sketch=0;fillStyle=solid;size=6;pointerEvents=1;points=[];fillColor=none;resizable=0;rotatable=0;perimeter=centerPerimeter;snapToPoint=1;fontFamily=Helvetica;fontSize=11;fontColor=default;" vertex="1" parent="1">
          <mxGeometry x="824.4299999999998" y="190" width="20" height="20" as="geometry" />
        </mxCell>
        <mxCell id="e-6Uy4bW49nk9TyTIGqh-105" value="&lt;font style=&quot;font-size: 8px;&quot;&gt;opr_a&lt;/font&gt;" style="text;html=1;strokeColor=none;fillColor=none;align=center;verticalAlign=middle;whiteSpace=wrap;rounded=0;" vertex="1" parent="1">
          <mxGeometry x="675" y="257.1" width="30" height="10" as="geometry" />
        </mxCell>
        <mxCell id="e-6Uy4bW49nk9TyTIGqh-106" value="&lt;font style=&quot;font-size: 8px;&quot;&gt;opr_b&lt;/font&gt;" style="text;html=1;strokeColor=none;fillColor=none;align=center;verticalAlign=middle;whiteSpace=wrap;rounded=0;" vertex="1" parent="1">
          <mxGeometry x="675" y="320" width="30" height="10" as="geometry" />
        </mxCell>
        <mxCell id="e-6Uy4bW49nk9TyTIGqh-107" value="&lt;font style=&quot;font-size: 8px;&quot;&gt;opr_res&lt;/font&gt;" style="text;html=1;strokeColor=none;fillColor=none;align=center;verticalAlign=middle;whiteSpace=wrap;rounded=0;" vertex="1" parent="1">
          <mxGeometry x="720.71" y="288.12" width="30" height="10" as="geometry" />
        </mxCell>
        <mxCell id="e-6Uy4bW49nk9TyTIGqh-108" value="&lt;font style=&quot;font-size: 8px;&quot;&gt;addr&lt;/font&gt;" style="text;html=1;strokeColor=none;fillColor=none;align=center;verticalAlign=middle;whiteSpace=wrap;rounded=0;" vertex="1" parent="1">
          <mxGeometry x="876.4299999999998" y="260" width="30" height="10" as="geometry" />
        </mxCell>
        <mxCell id="e-6Uy4bW49nk9TyTIGqh-109" value="&lt;font style=&quot;font-size: 8px;&quot;&gt;wdata&lt;/font&gt;" style="text;html=1;strokeColor=none;fillColor=none;align=center;verticalAlign=middle;whiteSpace=wrap;rounded=0;" vertex="1" parent="1">
          <mxGeometry x="876.4299999999998" y="334.05999999999995" width="30" height="10" as="geometry" />
        </mxCell>
        <mxCell id="e-6Uy4bW49nk9TyTIGqh-110" value="&lt;font style=&quot;font-size: 8px;&quot;&gt;rdata&lt;/font&gt;" style="text;html=1;strokeColor=none;fillColor=none;align=center;verticalAlign=middle;whiteSpace=wrap;rounded=0;" vertex="1" parent="1">
          <mxGeometry x="936.4299999999998" y="298.1199999999999" width="30" height="10" as="geometry" />
        </mxCell>
        <mxCell id="e-6Uy4bW49nk9TyTIGqh-111" value="&lt;b style=&quot;font-size: 8px;&quot;&gt;&lt;font color=&quot;#0000ff&quot;&gt;CSR Register &lt;br&gt;File&lt;/font&gt;&lt;/b&gt;" style="rounded=0;whiteSpace=wrap;html=1;points=[[0,0,0,0,0],[0,0.25,0,0,0],[0,0.5,0,0,0],[0,0.75,0,0,0],[0,1,0,0,0],[0.25,0,0,0,0],[0.25,1,0,0,0],[0.5,0,0,0,0],[0.5,1,0,0,0],[0.75,0,0,0,0],[0.75,1,0,0,0],[1,0,0,0,0],[1,0.25,0,0,0],[1,0.5,0,0,0],[1,0.63,0,0,0],[1,0.75,0,0,0],[1,1,0,0,0]];fontColor=#007FFF;strokeColor=#0000FF;" vertex="1" parent="1">
          <mxGeometry x="865" y="480" width="100" height="170" as="geometry" />
        </mxCell>
        <mxCell id="e-6Uy4bW49nk9TyTIGqh-112" value="&lt;font style=&quot;font-size: 8px;&quot;&gt;pc&lt;/font&gt;" style="text;html=1;strokeColor=none;fillColor=none;align=center;verticalAlign=middle;whiteSpace=wrap;rounded=0;fontColor=#0000ff;" vertex="1" parent="1">
          <mxGeometry x="865" y="584" width="20" height="15" as="geometry" />
        </mxCell>
        <mxCell id="e-6Uy4bW49nk9TyTIGqh-113" value="&lt;font style=&quot;font-size: 8px;&quot;&gt;addr&lt;/font&gt;" style="text;html=1;strokeColor=none;fillColor=none;align=center;verticalAlign=middle;whiteSpace=wrap;rounded=0;fontColor=#0000ff;" vertex="1" parent="1">
          <mxGeometry x="865" y="507" width="27.5" height="15" as="geometry" />
        </mxCell>
        <mxCell id="e-6Uy4bW49nk9TyTIGqh-114" style="edgeStyle=orthogonalEdgeStyle;shape=connector;rounded=0;orthogonalLoop=1;jettySize=auto;html=1;labelBackgroundColor=default;strokeColor=#0000ff;align=center;verticalAlign=middle;fontFamily=Helvetica;fontSize=11;fontColor=default;endArrow=open;entryX=0;entryY=0.5;entryDx=0;entryDy=0;endFill=0;exitX=0.5;exitY=0;exitDx=0;exitDy=0;" edge="1" parent="1" source="e-6Uy4bW49nk9TyTIGqh-149" target="e-6Uy4bW49nk9TyTIGqh-115">
          <mxGeometry relative="1" as="geometry">
            <mxPoint x="730" y="1146.6667227909484" as="sourcePoint" />
            <Array as="points">
              <mxPoint x="780" y="950" />
              <mxPoint x="780" y="607" />
            </Array>
          </mxGeometry>
        </mxCell>
        <mxCell id="e-6Uy4bW49nk9TyTIGqh-115" value="&lt;span style=&quot;font-size: 8px;&quot;&gt;interrupt/exception&lt;br&gt;&lt;/span&gt;" style="text;html=1;strokeColor=none;fillColor=none;align=center;verticalAlign=middle;whiteSpace=wrap;rounded=0;fontColor=#0000ff;" vertex="1" parent="1">
          <mxGeometry x="865" y="599" width="77.5" height="15" as="geometry" />
        </mxCell>
        <mxCell id="e-6Uy4bW49nk9TyTIGqh-116" value="&lt;font style=&quot;font-size: 8px;&quot;&gt;data&lt;/font&gt;" style="text;html=1;strokeColor=none;fillColor=none;align=center;verticalAlign=middle;whiteSpace=wrap;rounded=0;fontColor=#0000ff;" vertex="1" parent="1">
          <mxGeometry x="865" y="525.5" width="27.5" height="15" as="geometry" />
        </mxCell>
        <mxCell id="e-6Uy4bW49nk9TyTIGqh-117" style="edgeStyle=orthogonalEdgeStyle;shape=connector;rounded=0;orthogonalLoop=1;jettySize=auto;html=1;labelBackgroundColor=default;strokeColor=#0000ff;align=center;verticalAlign=middle;fontFamily=Helvetica;fontSize=11;fontColor=default;endArrow=open;exitX=0.568;exitY=0.998;exitDx=0;exitDy=0;exitPerimeter=0;endFill=0;" edge="1" parent="1" source="e-6Uy4bW49nk9TyTIGqh-125" target="e-6Uy4bW49nk9TyTIGqh-118">
          <mxGeometry relative="1" as="geometry">
            <mxPoint x="135" y="570" as="sourcePoint" />
            <Array as="points">
              <mxPoint x="155" y="474" />
              <mxPoint x="155" y="800" />
              <mxPoint x="805" y="800" />
              <mxPoint x="805" y="621" />
            </Array>
          </mxGeometry>
        </mxCell>
        <mxCell id="e-6Uy4bW49nk9TyTIGqh-118" value="&lt;font style=&quot;font-size: 8px;&quot;&gt;inst&lt;/font&gt;" style="text;html=1;strokeColor=none;fillColor=none;align=center;verticalAlign=middle;whiteSpace=wrap;rounded=0;fontColor=#0000ff;" vertex="1" parent="1">
          <mxGeometry x="865" y="614" width="22.5" height="15" as="geometry" />
        </mxCell>
        <mxCell id="e-6Uy4bW49nk9TyTIGqh-119" value="&lt;font style=&quot;font-size: 8px;&quot;&gt;rdata&lt;/font&gt;" style="text;html=1;strokeColor=none;fillColor=none;align=center;verticalAlign=middle;whiteSpace=wrap;rounded=0;fontColor=#0000ff;" vertex="1" parent="1">
          <mxGeometry x="937.5" y="535" width="27.5" height="15" as="geometry" />
        </mxCell>
        <mxCell id="e-6Uy4bW49nk9TyTIGqh-120" style="edgeStyle=orthogonalEdgeStyle;shape=connector;rounded=0;orthogonalLoop=1;jettySize=auto;html=1;labelBackgroundColor=default;strokeColor=#0000ff;align=center;verticalAlign=middle;fontFamily=Helvetica;fontSize=11;fontColor=default;endArrow=open;entryX=0.75;entryY=1;entryDx=0;entryDy=0;endFill=0;" edge="1" parent="1" source="e-6Uy4bW49nk9TyTIGqh-121" target="e-6Uy4bW49nk9TyTIGqh-144">
          <mxGeometry relative="1" as="geometry">
            <mxPoint x="-165" y="470" as="targetPoint" />
            <Array as="points">
              <mxPoint x="995" y="580" />
              <mxPoint x="995" y="830" />
              <mxPoint x="-175" y="830" />
              <mxPoint x="-175" y="336" />
            </Array>
          </mxGeometry>
        </mxCell>
        <mxCell id="e-6Uy4bW49nk9TyTIGqh-121" value="&lt;font style=&quot;font-size: 8px;&quot;&gt;epc&lt;/font&gt;" style="text;html=1;strokeColor=none;fillColor=none;align=center;verticalAlign=middle;whiteSpace=wrap;rounded=0;fontColor=#0000ff;" vertex="1" parent="1">
          <mxGeometry x="937.5" y="572.5" width="27.5" height="15" as="geometry" />
        </mxCell>
        <mxCell id="e-6Uy4bW49nk9TyTIGqh-122" style="edgeStyle=orthogonalEdgeStyle;shape=connector;rounded=0;orthogonalLoop=1;jettySize=auto;html=1;labelBackgroundColor=default;strokeColor=#0000ff;align=center;verticalAlign=middle;fontFamily=Helvetica;fontSize=11;fontColor=default;endArrow=open;entryX=0;entryY=0.5;entryDx=0;entryDy=0;endFill=0;" edge="1" parent="1" source="e-6Uy4bW49nk9TyTIGqh-124" target="e-6Uy4bW49nk9TyTIGqh-112">
          <mxGeometry relative="1" as="geometry">
            <mxPoint x="835" y="530" as="targetPoint" />
            <Array as="points">
              <mxPoint x="805" y="592" />
            </Array>
          </mxGeometry>
        </mxCell>
        <mxCell id="e-6Uy4bW49nk9TyTIGqh-123" value="" style="edgeStyle=orthogonalEdgeStyle;rounded=0;orthogonalLoop=1;jettySize=auto;html=1;entryDx=0;entryDy=0;endArrow=none;endFill=0;" edge="1" parent="1" source="e-6Uy4bW49nk9TyTIGqh-97" target="e-6Uy4bW49nk9TyTIGqh-124">
          <mxGeometry relative="1" as="geometry">
            <mxPoint x="585" y="150" as="sourcePoint" />
            <mxPoint x="900" y="150" as="targetPoint" />
            <Array as="points" />
          </mxGeometry>
        </mxCell>
        <mxCell id="e-6Uy4bW49nk9TyTIGqh-124" value="" style="shape=waypoint;sketch=0;fillStyle=solid;size=6;pointerEvents=1;points=[];fillColor=none;resizable=0;rotatable=0;perimeter=centerPerimeter;snapToPoint=1;fontFamily=Helvetica;fontSize=11;fontColor=default;strokeColor=#0000FF;" vertex="1" parent="1">
          <mxGeometry x="795" y="140" width="20" height="20" as="geometry" />
        </mxCell>
        <mxCell id="e-6Uy4bW49nk9TyTIGqh-125" value="" style="shape=waypoint;sketch=0;fillStyle=solid;size=6;pointerEvents=1;points=[];fillColor=none;resizable=0;rotatable=0;perimeter=centerPerimeter;snapToPoint=1;fontFamily=Helvetica;fontSize=11;fontColor=default;" vertex="1" parent="1">
          <mxGeometry x="195" y="464" width="20" height="20" as="geometry" />
        </mxCell>
        <mxCell id="e-6Uy4bW49nk9TyTIGqh-126" value="" style="shape=trapezoid;perimeter=trapezoidPerimeter;whiteSpace=wrap;html=1;fixedSize=1;rotation=90;size=13.269999999999982;points=[[0,0,0,0,0],[0,0.25,0,0,0],[0,0.5,0,0,0],[0,0.75,0,0,0],[0,1,0,0,0],[0.2,1,0,0,0],[0.25,0,0,0,0],[0.4,1,0,0,0],[0.5,0,0,0,0],[0.6,1,0,0,0],[0.75,0,0,0,0],[0.8,0.64,0,0,8],[1,0,0,0,0],[1,0.25,0,0,0],[1,0.5,0,0,0],[1,0.75,0,0,0],[1,1,0,0,0]];" vertex="1" parent="1">
          <mxGeometry x="1045" y="284.99999999999994" width="70" height="22.2" as="geometry" />
        </mxCell>
        <mxCell id="e-6Uy4bW49nk9TyTIGqh-127" style="edgeStyle=orthogonalEdgeStyle;shape=connector;rounded=0;orthogonalLoop=1;jettySize=auto;html=1;entryX=0.8;entryY=0.64;entryDx=0;entryDy=8;entryPerimeter=0;labelBackgroundColor=default;strokeColor=#0000ff;align=center;verticalAlign=middle;fontFamily=Helvetica;fontSize=11;fontColor=default;endArrow=open;endFill=0;" edge="1" parent="1" source="e-6Uy4bW49nk9TyTIGqh-119" target="e-6Uy4bW49nk9TyTIGqh-126">
          <mxGeometry relative="1" as="geometry" />
        </mxCell>
        <mxCell id="e-6Uy4bW49nk9TyTIGqh-128" value="" style="endArrow=open;html=1;rounded=0;labelBackgroundColor=default;strokeColor=GREEN;align=center;verticalAlign=middle;fontFamily=Helvetica;fontSize=11;fontColor=default;shape=connector;entryX=0;entryY=0.5;entryDx=0;entryDy=0;endFill=0;" edge="1" parent="1" target="e-6Uy4bW49nk9TyTIGqh-129">
          <mxGeometry width="50" height="50" relative="1" as="geometry">
            <mxPoint x="355" y="579.67" as="sourcePoint" />
            <mxPoint x="435" y="580" as="targetPoint" />
          </mxGeometry>
        </mxCell>
        <mxCell id="e-6Uy4bW49nk9TyTIGqh-129" value="&lt;font color=&quot;#ff0000&quot;&gt;rd-en&lt;/font&gt;" style="text;html=1;strokeColor=none;fillColor=none;align=center;verticalAlign=middle;whiteSpace=wrap;rounded=0;fontSize=11;fontFamily=Helvetica;fontColor=default;" vertex="1" parent="1">
          <mxGeometry x="385" y="565" width="40" height="30" as="geometry" />
        </mxCell>
        <mxCell id="e-6Uy4bW49nk9TyTIGqh-130" value="" style="endArrow=open;html=1;rounded=0;labelBackgroundColor=default;strokeColor=GREEN;align=center;verticalAlign=middle;fontFamily=Helvetica;fontSize=11;fontColor=default;shape=connector;entryX=0;entryY=0.5;entryDx=0;entryDy=0;endFill=0;" edge="1" parent="1" target="e-6Uy4bW49nk9TyTIGqh-131">
          <mxGeometry width="50" height="50" relative="1" as="geometry">
            <mxPoint x="355" y="602.17" as="sourcePoint" />
            <mxPoint x="435" y="602.5" as="targetPoint" />
          </mxGeometry>
        </mxCell>
        <mxCell id="e-6Uy4bW49nk9TyTIGqh-131" value="&lt;font color=&quot;#ff0000&quot;&gt;sel-a&lt;/font&gt;" style="text;html=1;strokeColor=none;fillColor=none;align=center;verticalAlign=middle;whiteSpace=wrap;rounded=0;fontSize=11;fontFamily=Helvetica;fontColor=default;" vertex="1" parent="1">
          <mxGeometry x="385" y="587.5" width="60" height="30" as="geometry" />
        </mxCell>
        <mxCell id="e-6Uy4bW49nk9TyTIGqh-132" value="" style="endArrow=open;html=1;rounded=0;labelBackgroundColor=default;strokeColor=GREEN;align=center;verticalAlign=middle;fontFamily=Helvetica;fontSize=11;fontColor=default;shape=connector;entryX=0;entryY=0.5;entryDx=0;entryDy=0;endFill=0;" edge="1" parent="1" target="e-6Uy4bW49nk9TyTIGqh-133">
          <mxGeometry width="50" height="50" relative="1" as="geometry">
            <mxPoint x="355" y="623.67" as="sourcePoint" />
            <mxPoint x="435" y="624" as="targetPoint" />
            <Array as="points">
              <mxPoint x="370" y="620" />
            </Array>
          </mxGeometry>
        </mxCell>
        <mxCell id="e-6Uy4bW49nk9TyTIGqh-133" value="&lt;font color=&quot;#ff0000&quot;&gt;sel-b&lt;/font&gt;" style="text;html=1;strokeColor=none;fillColor=none;align=center;verticalAlign=middle;whiteSpace=wrap;rounded=0;fontSize=11;fontFamily=Helvetica;fontColor=default;" vertex="1" parent="1">
          <mxGeometry x="385" y="609" width="60" height="30" as="geometry" />
        </mxCell>
        <mxCell id="e-6Uy4bW49nk9TyTIGqh-134" value="" style="endArrow=open;html=1;rounded=0;labelBackgroundColor=default;strokeColor=GREEN;align=center;verticalAlign=middle;fontFamily=Helvetica;fontSize=11;fontColor=default;shape=connector;entryX=0;entryY=0.5;entryDx=0;entryDy=0;endFill=0;" edge="1" parent="1" target="e-6Uy4bW49nk9TyTIGqh-135">
          <mxGeometry width="50" height="50" relative="1" as="geometry">
            <mxPoint x="355" y="643.67" as="sourcePoint" />
            <mxPoint x="435" y="644" as="targetPoint" />
          </mxGeometry>
        </mxCell>
        <mxCell id="e-6Uy4bW49nk9TyTIGqh-135" value="&lt;font color=&quot;#ff0000&quot;&gt;wb_sel&lt;/font&gt;" style="text;html=1;strokeColor=none;fillColor=none;align=center;verticalAlign=middle;whiteSpace=wrap;rounded=0;fontSize=11;fontFamily=Helvetica;fontColor=default;" vertex="1" parent="1">
          <mxGeometry x="380" y="629" width="50" height="30" as="geometry" />
        </mxCell>
        <mxCell id="e-6Uy4bW49nk9TyTIGqh-136" value="" style="endArrow=open;html=1;rounded=0;labelBackgroundColor=default;strokeColor=GREEN;align=center;verticalAlign=middle;fontFamily=Helvetica;fontSize=11;fontColor=default;shape=connector;entryX=0;entryY=0.5;entryDx=0;entryDy=0;endFill=0;" edge="1" parent="1" target="e-6Uy4bW49nk9TyTIGqh-137">
          <mxGeometry width="50" height="50" relative="1" as="geometry">
            <mxPoint x="355" y="664.67" as="sourcePoint" />
            <mxPoint x="435" y="665" as="targetPoint" />
          </mxGeometry>
        </mxCell>
        <mxCell id="e-6Uy4bW49nk9TyTIGqh-137" value="&lt;font color=&quot;#ff0000&quot;&gt;br-take&lt;/font&gt;" style="text;html=1;strokeColor=none;fillColor=none;align=center;verticalAlign=middle;whiteSpace=wrap;rounded=0;fontSize=11;fontFamily=Helvetica;fontColor=default;" vertex="1" parent="1">
          <mxGeometry x="385" y="650" width="40" height="30" as="geometry" />
        </mxCell>
        <mxCell id="e-6Uy4bW49nk9TyTIGqh-138" value="" style="endArrow=open;html=1;rounded=0;labelBackgroundColor=default;strokeColor=GREEN;align=center;verticalAlign=middle;fontFamily=Helvetica;fontSize=11;fontColor=default;shape=connector;entryX=0;entryY=0.5;entryDx=0;entryDy=0;endFill=0;" edge="1" parent="1" target="e-6Uy4bW49nk9TyTIGqh-139">
          <mxGeometry width="50" height="50" relative="1" as="geometry">
            <mxPoint x="355" y="684.67" as="sourcePoint" />
            <mxPoint x="435" y="685" as="targetPoint" />
          </mxGeometry>
        </mxCell>
        <mxCell id="e-6Uy4bW49nk9TyTIGqh-139" value="&lt;font color=&quot;#ff0000&quot;&gt;aluop&lt;/font&gt;" style="text;html=1;strokeColor=none;fillColor=none;align=center;verticalAlign=middle;whiteSpace=wrap;rounded=0;fontSize=11;fontFamily=Helvetica;fontColor=default;" vertex="1" parent="1">
          <mxGeometry x="385" y="670" width="50" height="30" as="geometry" />
        </mxCell>
        <mxCell id="e-6Uy4bW49nk9TyTIGqh-140" value="" style="endArrow=open;html=1;rounded=0;labelBackgroundColor=default;strokeColor=GREEN;align=center;verticalAlign=middle;fontFamily=Helvetica;fontSize=11;fontColor=default;shape=connector;entryX=0;entryY=0.5;entryDx=0;entryDy=0;endFill=0;" edge="1" parent="1" target="e-6Uy4bW49nk9TyTIGqh-141">
          <mxGeometry width="50" height="50" relative="1" as="geometry">
            <mxPoint x="355" y="704.67" as="sourcePoint" />
            <mxPoint x="435" y="705" as="targetPoint" />
            <Array as="points">
              <mxPoint x="360" y="705" />
            </Array>
          </mxGeometry>
        </mxCell>
        <mxCell id="e-6Uy4bW49nk9TyTIGqh-141" value="&lt;font color=&quot;#ff0000&quot;&gt;br-type&lt;/font&gt;" style="text;html=1;strokeColor=none;fillColor=none;align=center;verticalAlign=middle;whiteSpace=wrap;rounded=0;fontSize=11;fontFamily=Helvetica;fontColor=default;" vertex="1" parent="1">
          <mxGeometry x="385" y="690" width="60" height="30" as="geometry" />
        </mxCell>
        <mxCell id="e-6Uy4bW49nk9TyTIGqh-142" style="edgeStyle=orthogonalEdgeStyle;shape=connector;rounded=0;orthogonalLoop=1;jettySize=auto;html=1;entryX=0;entryY=0.75;entryDx=0;entryDy=0;labelBackgroundColor=default;strokeColor=#000000;align=center;verticalAlign=middle;fontFamily=Helvetica;fontSize=11;fontColor=default;endArrow=open;exitX=0.5;exitY=0;exitDx=0;exitDy=0;endFill=0;" edge="1" parent="1" source="e-6Uy4bW49nk9TyTIGqh-144" target="e-6Uy4bW49nk9TyTIGqh-85">
          <mxGeometry relative="1" as="geometry">
            <Array as="points">
              <mxPoint x="-110" y="319" />
              <mxPoint x="-110" y="304" />
            </Array>
          </mxGeometry>
        </mxCell>
        <mxCell id="e-6Uy4bW49nk9TyTIGqh-143" style="edgeStyle=orthogonalEdgeStyle;shape=connector;rounded=0;orthogonalLoop=1;jettySize=auto;html=1;exitX=1;exitY=0.5;exitDx=0;exitDy=0;labelBackgroundColor=default;strokeColor=#0000ff;align=center;verticalAlign=middle;fontFamily=Helvetica;fontSize=11;fontColor=default;endArrow=open;entryX=1;entryY=0.5;entryDx=0;entryDy=0;endFill=0;" edge="1" parent="1" target="e-6Uy4bW49nk9TyTIGqh-144">
          <mxGeometry relative="1" as="geometry">
            <mxPoint x="-139.72727272727275" y="380" as="sourcePoint" />
          </mxGeometry>
        </mxCell>
        <mxCell id="e-6Uy4bW49nk9TyTIGqh-144" value="" style="shape=trapezoid;perimeter=trapezoidPerimeter;whiteSpace=wrap;html=1;fixedSize=1;rotation=90;size=13.269999999999982;" vertex="1" parent="1">
          <mxGeometry x="-175" y="307.4899999999999" width="70" height="22.2" as="geometry" />
        </mxCell>
        <mxCell id="e-6Uy4bW49nk9TyTIGqh-145" value="&lt;font color=&quot;#0000ff&quot;&gt;interrupt&lt;/font&gt;" style="text;html=1;align=center;verticalAlign=middle;resizable=0;points=[];autosize=1;strokeColor=none;fillColor=none;fontSize=11;fontFamily=Helvetica;fontColor=default;" vertex="1" parent="1">
          <mxGeometry x="-170" y="369.5" width="60" height="30" as="geometry" />
        </mxCell>
        <mxCell id="e-6Uy4bW49nk9TyTIGqh-146" value="&lt;b&gt;&lt;font style=&quot;font-size: 8px;&quot;&gt;ALU&lt;/font&gt;&lt;/b&gt;" style="text;html=1;strokeColor=none;fillColor=none;align=center;verticalAlign=middle;whiteSpace=wrap;rounded=0;fontSize=11;fontFamily=Helvetica;fontColor=default;" vertex="1" parent="1">
          <mxGeometry x="679" y="278.12" width="60" height="30" as="geometry" />
        </mxCell>
        <mxCell id="e-6Uy4bW49nk9TyTIGqh-147" style="edgeStyle=orthogonalEdgeStyle;shape=connector;rounded=0;orthogonalLoop=1;jettySize=auto;html=1;entryX=0;entryY=0.5;entryDx=0;entryDy=0;labelBackgroundColor=default;strokeColor=#0000ff;align=center;verticalAlign=middle;fontFamily=Helvetica;fontSize=11;fontColor=default;endArrow=open;endFill=0;" edge="1" parent="1" target="e-6Uy4bW49nk9TyTIGqh-116">
          <mxGeometry relative="1" as="geometry">
            <mxPoint x="780" y="410" as="sourcePoint" />
            <Array as="points">
              <mxPoint x="780" y="533" />
            </Array>
          </mxGeometry>
        </mxCell>
        <mxCell id="e-6Uy4bW49nk9TyTIGqh-148" value="" style="shape=waypoint;sketch=0;fillStyle=solid;size=6;pointerEvents=1;points=[];fillColor=none;resizable=0;rotatable=0;perimeter=centerPerimeter;snapToPoint=1;fontFamily=Helvetica;fontSize=11;fontColor=default;strokeColor=#0000FF;" vertex="1" parent="1">
          <mxGeometry x="769.5699999999999" y="400" width="20" height="20" as="geometry" />
        </mxCell>
        <mxCell id="e-6Uy4bW49nk9TyTIGqh-149" value="Timer" style="whiteSpace=wrap;html=1;aspect=fixed;" vertex="1" parent="1">
          <mxGeometry x="744.43" y="950" width="80" height="80" as="geometry" />
        </mxCell>
        <mxCell id="e-6Uy4bW49nk9TyTIGqh-151" value="sel-a" style="text;html=1;strokeColor=none;fillColor=none;align=center;verticalAlign=middle;whiteSpace=wrap;rounded=0;" vertex="1" parent="1">
          <mxGeometry x="611.79" y="288.12" width="45" height="22.5" as="geometry" />
        </mxCell>
        <mxCell id="e-6Uy4bW49nk9TyTIGqh-159" style="edgeStyle=orthogonalEdgeStyle;rounded=0;orthogonalLoop=1;jettySize=auto;html=1;entryX=1;entryY=0.5;entryDx=0;entryDy=0;strokeColor=GREEN;endArrow=open;endFill=0;" edge="1" parent="1">
          <mxGeometry relative="1" as="geometry">
            <mxPoint x="665" y="449" as="sourcePoint" />
            <mxPoint x="665" y="421" as="targetPoint" />
            <Array as="points">
              <mxPoint x="665" y="439" />
              <mxPoint x="665" y="439" />
            </Array>
          </mxGeometry>
        </mxCell>
        <mxCell id="e-6Uy4bW49nk9TyTIGqh-160" value="&lt;font color=&quot;#ff0000&quot;&gt;copy inst&lt;/font&gt;" style="edgeLabel;html=1;align=center;verticalAlign=middle;resizable=0;points=[];fontSize=11;fontFamily=Helvetica;fontColor=default;" connectable="0" vertex="1" parent="e-6Uy4bW49nk9TyTIGqh-159">
          <mxGeometry x="-0.8593" y="1" relative="1" as="geometry">
            <mxPoint x="1" y="2" as="offset" />
          </mxGeometry>
        </mxCell>
      </root>
    </mxGraphModel>
  </diagram>
</mxfile>
